<?xml version="1.0" ?><svg style="enable-background:new 0 0 64 64;" version="1.1" viewBox="0 0 64 64" xml:space="preserve" xmlns="http://www.w3.org/2000/svg" xmlns:xlink="http://www.w3.org/1999/xlink"><g id="orgami"/><g id="embroidery"/><g id="craftsman"/><g id="pottery"/><g id="sculpt"/><g id="yarn"/><g id="scissors"/><g id="sewing_machine"/><g id="knitting"/><g id="stationary"/><g id="stapler"/><g id="compass"/><g id="cutter"/><g id="pin_tool"/><g id="wood_chisel"><path fill='white' d="M60.1,47.7L47.7,35.2c-1.2-1.2-3.1-1.2-4.2,0l-0.7,0.7L41,34.1l0.6-4.4c0-0.1,0-0.2,0-0.3l13.7-13.7c0.4-0.4,0.4-1,0-1.4   L47,6c-0.2-0.2-0.4-0.3-0.7-0.3h0c-0.3,0-0.5,0.1-0.7,0.3L32,19.6L18.4,6c-0.4-0.4-1-0.4-1.4,0l-8.3,8.3c-0.4,0.4-0.4,1,0,1.4   l13.7,13.7c0,0.1,0,0.2,0,0.4l0.6,4.4l-1.7,1.7l-0.7-0.7c-1.2-1.2-3.1-1.2-4.2,0L3.9,47.7c-1.2,1.2-1.2,3.1,0,4.2l5.5,5.5   c0.6,0.6,1.3,0.9,2.1,0.9c0.8,0,1.6-0.3,2.1-0.9L26.1,45c0.6-0.6,0.9-1.3,0.9-2.1s-0.3-1.6-0.9-2.1l-0.7-0.7l1.7-1.7l4.4,0.6   c0.2,0,0.3,0,0.5,0c0.2,0.1,0.3,0.1,0.5,0.1l4.4-0.6l1.7,1.7l-0.7,0.7C37.3,41.3,37,42,37,42.8s0.3,1.6,0.9,2.1l12.5,12.5   c0.6,0.6,1.3,0.9,2.1,0.9c0.8,0,1.6-0.3,2.1-0.9l5.5-5.5C61.3,50.7,61.3,48.8,60.1,47.7z M24.7,43.5L12.2,56c-0.4,0.4-1,0.4-1.4,0   l-5.5-5.5c-0.4-0.4-0.4-1,0-1.4l12.5-12.5c0.2-0.2,0.5-0.3,0.7-0.3s0.5,0.1,0.7,0.3l5.5,5.5c0.2,0.2,0.3,0.4,0.3,0.7   S24.9,43.3,24.7,43.5z M46.3,8.1l6.9,6.9l-1.4,1.4l-6.9-6.9L46.3,8.1z M43.5,10.9l6.9,6.9L40.3,27.9L33.4,21L43.5,10.9z M17.7,8.1   l1.4,1.4l-6.9,6.9L10.8,15L17.7,8.1z M27,36.3c-0.3,0-0.6,0.1-0.8,0.3L24,38.6l-1.4-1.4l2.1-2.1c0.2-0.2,0.3-0.5,0.3-0.9l-0.4-2.7   l5,5L27,36.3z M37.2,36.3c0,0-0.1,0-0.1,0l-4.4,0.6L13.6,17.8l6.9-6.9l10.8,10.8c0,0,0,0,0,0s0,0,0,0l8.3,8.3L39,34.4   c0,0.3,0.1,0.6,0.3,0.8l2.1,2.1L40,38.6l-2.1-2.1C37.7,36.4,37.5,36.3,37.2,36.3z M58.7,50.5L53.2,56c-0.4,0.4-1,0.4-1.4,0   L39.3,43.5c-0.2-0.2-0.3-0.4-0.3-0.7s0.1-0.5,0.3-0.7l5.5-5.5c0.2-0.2,0.5-0.3,0.7-0.3s0.5,0.1,0.7,0.3l12.5,12.5   C59.1,49.5,59.1,50.1,58.7,50.5z"/></g><g id="adhesive_tape"/><g id="sewing_clothes"/><g id="anvil"/><g id="glue_gun"/><g id="roller_brush"/></svg>